<svg width="14" height="14" viewBox="0 0 14 14" fill="none" xmlns="http://www.w3.org/2000/svg">
    <path d="M11.2437 4.94371C11.0687 4.76871 10.8062 4.76871 10.6312 4.94371L6.99996 8.56621L3.36871 4.94371C3.28446 4.88052 3.18025 4.84985 3.0752 4.85731C2.97015 4.86478 2.87132 4.90988 2.79685 4.98435C2.72239 5.05882 2.67728 5.15765 2.66981 5.2627C2.66235 5.36775 2.69302 5.47196 2.75621 5.55621L6.69371 9.49371C6.77549 9.57387 6.88545 9.61877 6.99996 9.61877C7.11448 9.61877 7.22443 9.57387 7.30621 9.49371L11.2437 5.55621C11.3239 5.47443 11.3688 5.36448 11.3688 5.24996C11.3688 5.13544 11.3239 5.02549 11.2437 4.94371Z" fill="#616161"/>
</svg>
