<svg width="20" height="20" viewBox="0 0 20 20" fill="none" xmlns="http://www.w3.org/2000/svg">
    <path d="M15.85 7.65001C16.05 7.85001 16.05 8.15001 15.85 8.35001L10.39 13.84C10.3388 13.8914 10.2781 13.9322 10.2111 13.96C10.1442 13.9879 10.0724 14.0022 9.99995 14.0022C9.92746 14.0022 9.85569 13.9879 9.78876 13.96C9.72183 13.9322 9.66106 13.8914 9.60995 13.84L4.14995 8.35001C4.09264 8.30703 4.04524 8.25224 4.01095 8.18934C3.97666 8.12644 3.95629 8.05691 3.95121 7.98546C3.94613 7.914 3.95647 7.84229 3.98152 7.77517C4.00657 7.70806 4.04574 7.64711 4.0964 7.59646C4.14705 7.5458 4.208 7.50663 4.27511 7.48158C4.34223 7.45653 4.41394 7.44619 4.4854 7.45127C4.55685 7.45635 4.62638 7.47672 4.68928 7.51101C4.75218 7.5453 4.80697 7.5927 4.84995 7.65001L9.99995 12.8L15.15 7.64001C15.35 7.44001 15.65 7.44001 15.85 7.64001V7.65001Z"
          fill="#616161"/>
</svg>
