<svg width="14" height="14" viewBox="0 0 14 14" fill="none" xmlns="http://www.w3.org/2000/svg">
    <path d="M2.75629 9.05629C2.93129 9.23129 3.19379 9.23129 3.36879 9.05629L7.00004 5.43379L10.6313 9.05629C10.7155 9.11948 10.8198 9.15015 10.9248 9.14269C11.0298 9.13522 11.1287 9.09012 11.2031 9.01565C11.2776 8.94118 11.3227 8.84235 11.3302 8.7373C11.3377 8.63225 11.307 8.52804 11.2438 8.44379L7.30629 4.50629C7.22451 4.42613 7.11455 4.38123 7.00004 4.38123C6.88552 4.38123 6.77557 4.42613 6.69379 4.50629L2.75629 8.44379C2.67613 8.52557 2.63123 8.63552 2.63123 8.75004C2.63123 8.86456 2.67613 8.97451 2.75629 9.05629Z" fill="#616161"/>
</svg>
