<svg width="16" height="16" viewBox="0 0 16 16" fill="none" xmlns="http://www.w3.org/2000/svg">
<path d="M8 12C9.06087 12 10.0783 11.5786 10.8284 10.8284C11.5786 10.0783 12 9.06087 12 8C12 6.93913 11.5786 5.92172 10.8284 5.17157C10.0783 4.42143 9.06087 4 8 4C6.93913 4 5.92172 4.42143 5.17157 5.17157C4.42143 5.92172 4 6.93913 4 8C4 9.06087 4.42143 10.0783 5.17157 10.8284C5.92172 11.5786 6.93913 12 8 12ZM8 0C6.94943 -1.56548e-08 5.90914 0.206926 4.93853 0.608964C3.96793 1.011 3.08601 1.60028 2.34315 2.34315C1.60028 3.08601 1.011 3.96793 0.608964 4.93853C0.206926 5.90914 0 6.94943 0 8C0 9.05058 0.206926 10.0909 0.608964 11.0615C1.011 12.0321 1.60028 12.914 2.34315 13.6569C3.08601 14.3997 3.96793 14.989 4.93853 15.391C5.90914 15.7931 6.94943 16 8 16C10.1217 16 12.1566 15.1571 13.6569 13.6569C15.1571 12.1566 16 10.1217 16 8C16 5.87827 15.1571 3.84344 13.6569 2.34315C12.1566 0.842855 10.1217 3.16163e-08 8 0ZM1.33333 8C1.33333 6.23189 2.03571 4.5362 3.28595 3.28595C4.5362 2.03571 6.23189 1.33333 8 1.33333C9.76811 1.33333 11.4638 2.03571 12.714 3.28595C13.9643 4.5362 14.6667 6.23189 14.6667 8C14.6667 9.76811 13.9643 11.4638 12.714 12.714C11.4638 13.9643 9.76811 14.6667 8 14.6667C6.23189 14.6667 4.5362 13.9643 3.28595 12.714C2.03571 11.4638 1.33333 9.76811 1.33333 8Z" fill="#0F6CBD"/>
</svg>
