<?xml version="1.0" standalone="no"?><!DOCTYPE svg PUBLIC "-//W3C//DTD SVG 1.1//EN" "http://www.w3.org/Graphics/SVG/1.1/DTD/svg11.dtd"><svg t="1731911569435" class="icon" viewBox="0 0 1024 1024" version="1.1" xmlns="http://www.w3.org/2000/svg" p-id="15210" xmlns:xlink="http://www.w3.org/1999/xlink" width="200" height="200"><path d="M371.45098 12.247843h281.09804c199.599686 0 361.411765 161.812078 361.411764 361.411765v281.098039c0 199.599686-161.812078 361.411765-361.411764 361.411765H371.45098c-199.599686 0-361.411765-161.812078-361.411764-361.411765v-281.098039c0-199.599686 161.812078-361.411765 361.411764-361.411765z m221.424942 654.456471H427.469804c-9.577412 0-16.76549 7.288471-16.76549 15.801725 0 9.738039 7.188078 15.801725 16.76549 15.801726h165.406118c9.59749 0 16.785569-7.288471 16.785568-15.801726-1.204706-9.738039-7.188078-15.801725-16.785568-15.801725z m-99.468549 92.421019a42.36549 42.36549 0 0 0 29.957019 0l61.118745-29.194039H434.698039l58.729412 29.194039z m154.603921-449.997804c-38.349804-37.687216-85.092392-55.93851-139.023059-55.938509-55.135373 0-100.693333 18.251294-139.043137 55.938509C330.390588 346.834824 311.215686 390.625882 311.215686 442.930196c0 7.308549 0 14.59702 1.204706 21.88549 0 1.224784 1.204706 3.654275 1.204706 4.879059 1.204706 7.288471 1.204706 12.167529 3.573961 18.231216v2.449568c2.409412 7.288471 3.614118 12.147451 6.003451 18.231216v1.204706c0 1.224784 0 1.224784 1.204706 1.224784 2.389333 7.308549 5.983373 13.392314 8.392784 19.476079 0 1.204706 0 1.204706 1.204706 1.204706 7.168 13.372235 15.560784 24.335059 25.158274 36.482509l14.376157 13.392314c2.409412 2.409412 3.614118 2.409412 3.614118 2.409412l3.573961 3.654274 3.614117 2.449569 9.577412 7.288471 1.204706 1.204706c1.204706 1.224784 1.204706 1.224784 2.389333 1.224784 5.983373 4.85898 9.59749 9.738039 13.19153 15.821804 3.594039 6.063686 5.983373 9.717961 8.392784 13.372235 2.389333 2.42949 8.372706 3.654275 15.580863 3.654275h148.620549c7.188078 0 13.171451-1.224784 15.580863-3.654275s5.983373-7.308549 8.392784-13.372235c2.389333-6.083765 7.188078-10.962824 13.171451-15.821804l1.204706-1.204706 2.409411-1.224784 9.577412-7.288471c0-1.224784 2.409412-2.449569 3.594039-2.449569l5.983373-6.063686 1.204706-1.224784c6.003451-4.85898 10.782118-9.738039 14.376157-13.372235 4.818824-6.083765 9.59749-12.167529 13.191529-18.251295 3.614118-6.083765 8.392784-12.167529 10.782118-19.476078 1.204706 0 1.204706 0 1.204706-1.204706 2.409412-4.85898 5.983373-12.147451 8.392784-19.456l1.204706-1.204706v-1.224784c2.389333-4.85898 3.594039-10.942745 5.983372-18.251294 0-1.204706 0-2.409412 1.204706-2.409412l3.59404-18.271373c0-1.204706 0-3.634196 1.204705-4.85898 1.204706-7.288471 1.204706-14.576941 1.204706-21.88549 0-49.854745-19.19498-93.645804-58.74949-131.353098z m3.614118 110.672314c-2.409412 1.224784-3.614118 1.224784-6.02353 1.224784a14.71749 14.71749 0 0 1-13.171451-8.513254c-5.983373-14.59702-15.580863-27.969255-28.772392-40.136785a123.562667 123.562667 0 0 0-49.131921-30.398745c-7.188078-2.42949-11.986824-10.942745-9.597491-19.476078a15.661176 15.661176 0 0 1 19.194981-9.717961 163.036863 163.036863 0 0 1 59.914039 36.48251c15.580863 14.59702 27.567686 31.623529 34.755765 48.650039 3.614118 9.738039 0 18.251294-7.188079 21.88549z" fill="#006aff" p-id="15211"></path></svg>