<?xml version="1.0" encoding="UTF-8" standalone="no"?>
<!--
SPDX-FileCopyrightText: b5327157 <b5327157@protonmail.com>

SPDX-License-Identifier: CC0-1.0
-->

<svg
   version="1.0"
   width="256"
   height="256"
   id="source-engine-texture-icon"
   sodipodi:docname="no_vtf-application-x-vtf.svg"
   inkscape:version="1.2.1 (9c6d41e410, 2022-07-14, custom)"
   xmlns:inkscape="http://www.inkscape.org/namespaces/inkscape"
   xmlns:sodipodi="http://sodipodi.sourceforge.net/DTD/sodipodi-0.dtd"
   xmlns="http://www.w3.org/2000/svg"
   xmlns:svg="http://www.w3.org/2000/svg"
   xmlns:rdf="http://www.w3.org/1999/02/22-rdf-syntax-ns#"
   xmlns:cc="http://creativecommons.org/ns#"
   xmlns:dc="http://purl.org/dc/elements/1.1/">
  <title
     id="title2936">Source Engine Texture Icon</title>
  <defs
     id="defs1825">
    <filter
       inkscape:collect="always"
       style="color-interpolation-filters:sRGB"
       id="filter691"
       x="-0.001154384"
       y="-0.0010146218"
       width="1.0023088"
       height="1.0020292">
      <feGaussianBlur
         inkscape:collect="always"
         stdDeviation="0.039551998"
         id="feGaussianBlur693" />
    </filter>
    <filter
       inkscape:collect="always"
       style="color-interpolation-filters:sRGB"
       id="filter799"
       x="-0.0010477272"
       y="-0.0011143241"
       width="1.0020955"
       height="1.0022286">
      <feGaussianBlur
         inkscape:collect="always"
         stdDeviation="0.092900271"
         id="feGaussianBlur801" />
    </filter>
  </defs>
  <sodipodi:namedview
     id="namedview1823"
     pagecolor="#ffffff"
     bordercolor="#000000"
     borderopacity="0.25"
     inkscape:showpageshadow="true"
     inkscape:pageopacity="0.0"
     inkscape:pagecheckerboard="false"
     inkscape:deskcolor="#d1d1d1"
     showgrid="false"
     inkscape:zoom="0.82910157"
     inkscape:cx="-223.73616"
     inkscape:cy="-65.733804"
     inkscape:window-width="1920"
     inkscape:window-height="1028"
     inkscape:window-x="0"
     inkscape:window-y="0"
     inkscape:window-maximized="1"
     inkscape:current-layer="source-engine-texture-icon"
     showborder="true"
     shape-rendering="auto" />
  <rect
     style="opacity:0.8;fill:#000000"
     id="rect3805"
     width="256"
     height="256"
     x="0"
     y="0" />
  <g
     id="g532"
     style="opacity:0.4">
    <path
       style="display:inline;fill:#ff00ff;stroke-width:0.25"
       d="M 32,240 V 224 H 16 0 V 208 192 H 16 32 V 176 160 H 16 0 V 144 128 H 16 32 V 112 96 H 16 0 V 80 64 H 16 32 V 48 32 H 16 0 V 16 0 H 16 32 V 16 32 H 48 64 V 16 0 h 16 16 v 16 16 h 16 16 V 16 0 h 16 16 v 16 16 h 16 16 V 16 0 h 16 16 v 16 16 h 16 16 v 16 16 h -16 -16 v 16 16 h 16 16 v 16 16 h -16 -16 v 16 16 h 16 16 v 16 16 h -16 -16 v 16 16 h 16 16 v 16 16 h -16 -16 v -16 -16 h -16 -16 v 16 16 h -16 -16 v -16 -16 h -16 -16 v 16 16 H 112 96 V 240 224 H 80 64 v 16 16 H 48 32 Z m 32,-32 v -16 h 16 16 v 16 16 h 16 16 v -16 -16 h 16 16 v 16 16 h 16 16 v -16 -16 h 16 16 v -16 -16 h -16 -16 v -16 -16 h 16 16 V 112 96 H 208 192 V 80 64 h 16 16 V 48 32 H 208 192 V 48 64 H 176 160 V 48 32 H 144 128 V 48 64 H 112 96 V 48 32 H 80 64 V 48 64 H 48 32 v 16 16 h 16 16 v 16 16 H 48 32 v 16 16 h 16 16 v 16 16 H 48 32 v 16 16 H 48 64 Z M 96,176 V 160 H 80 64 V 144 128 H 80 96 V 112 96 H 80 64 V 80 64 h 16 16 v 16 16 h 16 16 V 80 64 h 16 16 v 16 16 h 16 16 v 16 16 h -16 -16 v 16 16 h 16 16 v 16 16 h -16 -16 v -16 -16 h -16 -16 v 16 16 H 112 96 Z m 32,-32 v -16 h 16 16 V 112 96 h -16 -16 v 16 16 H 112 96 v 16 16 h 16 16 z"
       id="path491" />
    <path
       style="display:inline;fill:#000000;stroke-width:0.25"
       d="M 0,240 V 224 H 16 32 V 208 192 H 16 0 V 176 160 H 16 32 V 144 128 H 16 0 V 112 96 H 16 32 V 80 64 H 16 0 V 48 32 H 16 32 V 16 0 H 48 64 V 16 32 H 80 96 V 16 0 h 16 16 v 16 16 h 16 16 V 16 0 h 16 16 v 16 16 h 16 16 V 16 0 h 16 16 v 16 16 h -16 -16 v 16 16 h 16 16 v 16 16 h -16 -16 v 16 16 h 16 16 v 16 16 h -16 -16 v 16 16 h 16 16 v 16 16 h -16 -16 v 16 16 h -16 -16 v -16 -16 h -16 -16 v 16 16 H 144 128 V 240 224 H 112 96 v 16 16 H 80 64 V 240 224 H 48 32 v 16 16 H 16 0 Z m 96,-32 v -16 h 16 16 v 16 16 h 16 16 v -16 -16 h 16 16 v 16 16 h 16 16 v -16 -16 h -16 -16 v -16 -16 h 16 16 V 144 128 H 208 192 V 112 96 h 16 16 V 80 64 H 208 192 V 48 32 H 176 160 V 48 64 H 144 128 V 48 32 H 112 96 V 48 64 H 80 64 V 48 32 H 48 32 V 48 64 H 48 64 V 80 96 H 48 32 v 16 16 h 16 16 v 16 16 H 48 32 v 16 16 h 16 16 v 16 16 H 80 96 Z M 64,176 V 160 H 80 96 V 144 128 H 80 64 V 112 96 H 80 96 V 80 64 h 16 16 v 16 16 h 16 16 V 80 64 h 16 16 v 16 16 h -16 -16 v 16 16 h 16 16 v 16 16 h -16 -16 v 16 16 H 144 128 V 176 160 H 112 96 v 16 16 H 80 64 Z m 96,-32 V 128 H 144 128 V 112 96 H 112 96 v 16 16 h 16 16 v 16 16 h 16 16 z"
       id="path487" />
  </g>
  <g
     id="g528"
     transform="translate(5.402048,8.0430004)">
    <path
       id="corner"
       d="m 212.42705,30.44334 c -5.57424,-2.286 -10.72547,-2.5536 -16.98675,-2.47465 L 89.327322,28.55081 c -21.89745,-1.11326 -43.48297,4.24949 -62.14064,14.99037 l 0.0193,0.02209 c -3.33711,1.81891 -5.60803,5.36489 -5.60803,9.43138 0,5.92692 4.80981,10.73322 10.73289,10.73322 3.09166,0 5.86704,-1.31426 7.82729,-3.40363 23.33021,-12.50417 51.84509,-14.90872 78.181228,-4.09313 46.7786,19.20199 69.21374,72.88818 50.00732,119.66325 -5.1513,12.54406 -12.80078,23.31822 -22.11594,32.03249 l 0.0818,0.11526 c -3.18785,1.85972 -5.34038,5.31151 -5.34038,9.27161 0,5.92668 4.813,10.72928 10.7406,10.72928 3.81112,0 7.15845,-2.00022 9.0628,-5.0105 11.34954,-10.67028 20.65405,-23.86041 26.94862,-39.18863 0.43387,-1.04671 43.90983,-106.94451 44.021,-107.22721 7.42264,-18.07364 -1.2436,-38.754 -19.31816,-46.17332 z"
       style="fill:#f79a10;filter:url(#filter799)" />
    <path
       id="s"
       d="m 65.604332,155.26235 c 0.17084,10.6408 9.10021,14.93446 18.7129,14.93446 7.03606,0 15.962738,-2.74687 15.962738,-11.33431 0,-7.37845 -10.128658,-9.95812 -27.639098,-13.73229 -14.07775,-3.09201 -28.1508,-8.06888 -28.1508,-23.69045 0,-22.65783 19.57031,-28.49571 38.62434,-28.49571 19.399448,0 37.251798,6.52077 39.140808,28.32178 H 99.081682 c -0.6867,-9.43809 -7.89861,-12.01394 -16.64988,-12.01394 -5.49652,0 -13.56544,1.02778 -13.56544,8.2392 0,8.75524 13.73629,9.95402 27.63768,13.22008 14.249458,3.25874 28.155898,8.40993 28.155898,24.89241 0,23.34508 -20.25676,30.8973 -40.513518,30.8973 -20.59814,0 -40.68056,-7.72329 -41.71631,-31.24233 h 23.17422 z"
       style="fill:#ffffff;filter:url(#filter691)" />
  </g>
  <metadata
     id="metadata2930">
    <rdf:RDF>
      <cc:Work
         rdf:about="">
        <dc:title>Source Engine Texture Icon</dc:title>
        <dc:date>2023-06-17</dc:date>
        <cc:license
           rdf:resource="http://creativecommons.org/publicdomain/zero/1.0/" />
        <dc:creator>
          <cc:Agent>
            <dc:title>b5327157 &lt;b5327157@protonmail.com&gt;</dc:title>
          </cc:Agent>
        </dc:creator>
        <dc:source>https://commons.wikimedia.org/wiki/File:Source_engine_logo_and_wordmark.svg</dc:source>
      </cc:Work>
      <cc:License
         rdf:about="http://creativecommons.org/publicdomain/zero/1.0/">
        <cc:permits
           rdf:resource="http://creativecommons.org/ns#Reproduction" />
        <cc:permits
           rdf:resource="http://creativecommons.org/ns#Distribution" />
        <cc:permits
           rdf:resource="http://creativecommons.org/ns#DerivativeWorks" />
      </cc:License>
    </rdf:RDF>
  </metadata>
</svg>
